
<svg xmlns="http://www.w3.org/2000/svg" width="1920" height="1080" viewBox="0 0 1920 1080">

  <rect x="0" y="0" width="1920" height="1080" fill="#0e1420"/>
  <rect x="0" y="0" width="1920" height="12" fill="#9d7bff"/>
  <text x="80" y="104" font-family="'Microsoft YaHei','PingFang SC','Noto Sans CJK SC',sans-serif" font-size="60" font-weight="bold" fill="#f2f6ff">协作关系</text>
  <text x="82" y="162" font-family="'Microsoft YaHei','PingFang SC','Noto Sans CJK SC',sans-serif" font-size="28" fill="#9aa7bd">Assignment 指派 · Aggregation 归属 · Association 使用</text>
  <line x1="80" y1="196" x2="1840" y2="196" stroke="#1f2a3d" stroke-width="2"/>
  <text x="80" y="1042" font-family="'Microsoft YaHei','PingFang SC','Noto Sans CJK SC',sans-serif" font-size="22" fill="#5a6a85">ArchGraph · Agent 组织与协作</text>
  <text x="1820" y="1042" font-family="'Microsoft YaHei','PingFang SC','Noto Sans CJK SC',sans-serif" font-size="22" fill="#5a6a85" text-anchor="end">7 / 9</text>
<rect x="140" y="230" width="460" height="90" rx="14" fill="#7fd1ff" opacity="0.12" stroke="#7fd1ff" stroke-width="2.5"/>
  <text x="370" y="287" font-family="'Microsoft YaHei','PingFang SC','Noto Sans CJK SC',sans-serif" font-size="30" font-weight="bold" fill="#7fd1ff" text-anchor="middle">媒体艺术家</text><text x="370" y="319" font-family="'Microsoft YaHei','PingFang SC','Noto Sans CJK SC',sans-serif" font-size="24" fill="#93a4c2" text-anchor="middle">media-artist-001</text>
<line x1="370" y1="320" x2="370" y2="384" stroke="#9d7bff" stroke-width="4"/>
  <polygon points="370,400 361,384 379,384" fill="#9d7bff"/>
<text x="380" y="370" font-family="'Microsoft YaHei','PingFang SC','Noto Sans CJK SC',sans-serif" font-size="25" fill="#b9a6ff" text-anchor="middle">Assignment 指派</text>
<rect x="140" y="400" width="460" height="90" rx="14" fill="#9d7bff" opacity="0.12" stroke="#9d7bff" stroke-width="2.5"/>
  <text x="370" y="457" font-family="'Microsoft YaHei','PingFang SC','Noto Sans CJK SC',sans-serif" font-size="30" font-weight="bold" fill="#9d7bff" text-anchor="middle">图片视频生成 Role</text><text x="370" y="489" font-family="'Microsoft YaHei','PingFang SC','Noto Sans CJK SC',sans-serif" font-size="24" fill="#93a4c2" text-anchor="middle">media-role-001</text>
<line x1="250" y1="490" x2="250" y2="604" stroke="#5b8cff" stroke-width="4"/>
  <polygon points="250,620 241,604 259,604" fill="#5b8cff"/>
<line x1="400" y1="490" x2="705.176534766043" y2="613.977967248705" stroke="#5ee0a0" stroke-width="4"/>
  <polygon points="720,620 701.7891413434396,622.3161664428058 708.5639281886464,605.6397680546042" fill="#5ee0a0"/>
<line x1="520" y1="490" x2="1144.3202028866872" y2="616.8150412113583" stroke="#ff7a9c" stroke-width="4"/>
  <polygon points="1160,620 1142.5286635680764,625.6349270875968 1146.111742205298,607.9951553351199" fill="#ff7a9c"/>
<text x="230" y="565" font-family="'Microsoft YaHei','PingFang SC','Noto Sans CJK SC',sans-serif" font-size="24" fill="#9fb0cf">uses</text>
<rect x="140" y="620" width="360" height="90" rx="14" fill="#7fd1ff" opacity="0.12" stroke="#7fd1ff" stroke-width="2.5"/>
  <text x="320" y="677" font-family="'Microsoft YaHei','PingFang SC','Noto Sans CJK SC',sans-serif" font-size="30" font-weight="bold" fill="#7fd1ff" text-anchor="middle">图像生成 Skill</text><text x="320" y="709" font-family="'Microsoft YaHei','PingFang SC','Noto Sans CJK SC',sans-serif" font-size="24" fill="#93a4c2" text-anchor="middle">media-skill-001</text>
<rect x="560" y="620" width="360" height="90" rx="14" fill="#5ee0a0" opacity="0.12" stroke="#5ee0a0" stroke-width="2.5"/>
  <text x="740" y="677" font-family="'Microsoft YaHei','PingFang SC','Noto Sans CJK SC',sans-serif" font-size="30" font-weight="bold" fill="#5ee0a0" text-anchor="middle">视频生成 Skill</text><text x="740" y="709" font-family="'Microsoft YaHei','PingFang SC','Noto Sans CJK SC',sans-serif" font-size="24" fill="#93a4c2" text-anchor="middle">media-video-skill-001</text>
<rect x="980" y="620" width="360" height="90" rx="14" fill="#ff7a9c" opacity="0.12" stroke="#ff7a9c" stroke-width="2.5"/>
  <text x="1160" y="677" font-family="'Microsoft YaHei','PingFang SC','Noto Sans CJK SC',sans-serif" font-size="30" font-weight="bold" fill="#ff7a9c" text-anchor="middle">视觉验收 Skill</text><text x="1160" y="709" font-family="'Microsoft YaHei','PingFang SC','Noto Sans CJK SC',sans-serif" font-size="24" fill="#93a4c2" text-anchor="middle">media-vl-skill-001</text>

<rect x="1380" y="230" width="400" height="90" rx="14" fill="#ffb547" opacity="0.12" stroke="#ffb547" stroke-width="2.5"/>
  <text x="1580" y="287" font-family="'Microsoft YaHei','PingFang SC','Noto Sans CJK SC',sans-serif" font-size="30" font-weight="bold" fill="#ffb547" text-anchor="middle">视频制作Leader</text><text x="1580" y="319" font-family="'Microsoft YaHei','PingFang SC','Noto Sans CJK SC',sans-serif" font-size="24" fill="#93a4c2" text-anchor="middle">video-leader-001</text>
<line x1="1450" y1="320" x2="1333.6265330672727" y2="391.61444118937067" stroke="#ffb547" stroke-width="4"/>
  <polygon points="1320,400 1328.9096562362936,383.94951633902974 1338.3434098982518,399.2793660397116" fill="#ffb547"/>
<line x1="1650" y1="320" x2="1691.520016959949" y2="386.4320271359186" stroke="#ffb547" stroke-width="4"/>
  <polygon points="1700,400 1683.8880322239033,391.2020175959472 1699.1520016959948,381.66203667588996" fill="#ffb547"/>
<text x="1390" y="375" font-family="'Microsoft YaHei','PingFang SC','Noto Sans CJK SC',sans-serif" font-size="24" fill="#ffd9a0">Aggregation 归属</text>
<text x="1710" y="375" font-family="'Microsoft YaHei','PingFang SC','Noto Sans CJK SC',sans-serif" font-size="24" fill="#ffd9a0">Aggregation 归属</text>
<rect x="1180" y="400" width="280" height="90" rx="14" fill="#5ee0a0" opacity="0.12" stroke="#5ee0a0" stroke-width="2.5"/>
  <text x="1320" y="457" font-family="'Microsoft YaHei','PingFang SC','Noto Sans CJK SC',sans-serif" font-size="30" font-weight="bold" fill="#5ee0a0" text-anchor="middle">视频制作</text><text x="1320" y="489" font-family="'Microsoft YaHei','PingFang SC','Noto Sans CJK SC',sans-serif" font-size="24" fill="#93a4c2" text-anchor="middle">video-producer-001</text>
<rect x="1580" y="400" width="280" height="90" rx="14" fill="#ff7a9c" opacity="0.12" stroke="#ff7a9c" stroke-width="2.5"/>
  <text x="1720" y="457" font-family="'Microsoft YaHei','PingFang SC','Noto Sans CJK SC',sans-serif" font-size="30" font-weight="bold" fill="#ff7a9c" text-anchor="middle">视频审核</text><text x="1720" y="489" font-family="'Microsoft YaHei','PingFang SC','Noto Sans CJK SC',sans-serif" font-size="24" fill="#93a4c2" text-anchor="middle">video-reviewer-001</text>
<line x1="1240" y1="490" x2="755.4851601086124" y2="615.9738583717608" stroke="#5ee0a0" stroke-width="4"/>
  <polygon points="740,620 753.2204554427278,607.2634558106663 757.7498647744969,624.6842609328553" fill="#5ee0a0"/>
<line x1="1700" y1="490" x2="1195.5222800023253" y2="616.1194299994187" stroke="#ff7a9c" stroke-width="4"/>
  <polygon points="1180,620 1193.3394593769983,607.3881474981107 1197.7051006276522,624.8507125007267" fill="#ff7a9c"/>
<text x="960" y="545" font-family="'Microsoft YaHei','PingFang SC','Noto Sans CJK SC',sans-serif" font-size="24" fill="#a8ecc9" text-anchor="middle">uses 视频生成</text>
<text x="1500" y="585" font-family="'Microsoft YaHei','PingFang SC','Noto Sans CJK SC',sans-serif" font-size="24" fill="#ffc3d2" text-anchor="middle">uses 视觉验收</text>
</svg>